<?xml version="1.0" standalone="no"?>
<!DOCTYPE svg PUBLIC "-//W3C//DTD SVG 20010904//EN"
 "http://www.w3.org/TR/2001/REC-SVG-20010904/DTD/svg10.dtd">
<svg version="1.0" xmlns="http://www.w3.org/2000/svg"
 width="177.000000pt" height="177.000000pt" viewBox="0 0 177.000000 177.000000"
 preserveAspectRatio="xMidYMid meet">
<metadata>
Created by potrace 1.14, written by Peter Selinger 2001-2017
</metadata>
<g transform="translate(0.000000,177.000000) scale(0.100000,-0.100000)"
fill="#000000" stroke="none">
<path d="M0 885 l0 -885 885 0 885 0 0 885 0 885 -885 0 -885 0 0 -885z m1035
574 c43 -20 70 -75 61 -122 -6 -30 -19 -47 -71 -88 -108 -85 -154 -180 -142
-296 11 -110 79 -203 186 -255 38 -19 63 -23 146 -24 110 0 137 -9 160 -54 32
-62 15 -109 -67 -186 -108 -102 -230 -153 -383 -161 -118 -6 -200 10 -302 59
-83 40 -214 166 -261 249 -70 124 -90 304 -52 453 27 108 70 177 164 271 87
86 168 133 274 160 73 18 245 15 287 -6z"/>
<path d="M783 1355 c-88 -19 -157 -59 -234 -135 -127 -125 -174 -287 -134
-458 22 -93 60 -159 134 -233 170 -169 413 -195 616 -64 28 18 63 46 78 62
l28 31 -93 4 c-78 3 -103 9 -158 35 -161 76 -250 212 -250 383 0 135 47 241
148 331 l51 47 -31 6 c-44 9 -84 6 -155 -9z"/>
</g>
</svg>
